<mxfile host="app.diagrams.net" modified="2023-04-24T14:39:04.689Z" agent="Mozilla/5.0 (Windows NT 10.0; Win64; x64) AppleWebKit/537.36 (KHTML, like Gecko) Chrome/112.0.0.0 Safari/537.36" etag="9XkWYrlP8myivgAk8Qwr" version="21.2.0" type="device">
  <diagram id="3diGoWDCTj_jwuFNSEU_" name="Page-2">
    <mxGraphModel dx="1434" dy="764" grid="1" gridSize="10" guides="1" tooltips="1" connect="1" arrows="1" fold="1" page="1" pageScale="1" pageWidth="1200" pageHeight="1600" math="0" shadow="0">
      <root>
        <mxCell id="0" />
        <mxCell id="1" parent="0" />
        <mxCell id="YZRFhoB7YX8apTzMsQSC-33" style="edgeStyle=orthogonalEdgeStyle;rounded=0;orthogonalLoop=1;jettySize=auto;html=1;entryX=0;entryY=0.5;entryDx=0;entryDy=0;fontSize=18;" parent="1" source="YZRFhoB7YX8apTzMsQSC-15" target="YZRFhoB7YX8apTzMsQSC-31" edge="1">
          <mxGeometry relative="1" as="geometry" />
        </mxCell>
        <mxCell id="YZRFhoB7YX8apTzMsQSC-15" value="" style="rounded=0;whiteSpace=wrap;html=1;" parent="1" vertex="1">
          <mxGeometry x="300.6" y="300" width="600" height="240" as="geometry" />
        </mxCell>
        <mxCell id="YZRFhoB7YX8apTzMsQSC-1" value="&lt;font style=&quot;font-size: 25px;&quot;&gt;&lt;b&gt;Menu planning model - overview&lt;br&gt;&lt;/b&gt;&lt;/font&gt;" style="text;html=1;align=center;verticalAlign=middle;resizable=0;points=[];autosize=1;strokeColor=none;fillColor=none;" parent="1" vertex="1">
          <mxGeometry x="395" width="410" height="40" as="geometry" />
        </mxCell>
        <mxCell id="YZRFhoB7YX8apTzMsQSC-3" value="Nutritional constraints" style="rounded=1;whiteSpace=wrap;html=1;fillColor=#d5e8d4;strokeColor=#82b366;" parent="1" vertex="1">
          <mxGeometry x="590.6" y="390" width="140" height="60" as="geometry" />
        </mxCell>
        <mxCell id="YZRFhoB7YX8apTzMsQSC-6" value="&lt;b&gt;Constraints&lt;/b&gt;" style="text;html=1;strokeColor=none;fillColor=none;align=center;verticalAlign=middle;whiteSpace=wrap;rounded=0;" parent="1" vertex="1">
          <mxGeometry x="360.6" y="405" width="60" height="30" as="geometry" />
        </mxCell>
        <mxCell id="YZRFhoB7YX8apTzMsQSC-7" value="Acceptability constraints" style="rounded=1;whiteSpace=wrap;html=1;fillColor=#dae8fc;strokeColor=#6c8ebf;" parent="1" vertex="1">
          <mxGeometry x="430" y="390" width="140" height="60" as="geometry" />
        </mxCell>
        <mxCell id="YZRFhoB7YX8apTzMsQSC-8" value="&lt;b&gt;Objectives&lt;/b&gt;" style="text;html=1;strokeColor=none;fillColor=none;align=center;verticalAlign=middle;whiteSpace=wrap;rounded=0;" parent="1" vertex="1">
          <mxGeometry x="360.6" y="480" width="60" height="30" as="geometry" />
        </mxCell>
        <mxCell id="YZRFhoB7YX8apTzMsQSC-9" value="Minimize environmental impact" style="rounded=1;whiteSpace=wrap;html=1;fillColor=#d5e8d4;strokeColor=#82b366;" parent="1" vertex="1">
          <mxGeometry x="430.6" y="470" width="140" height="60" as="geometry" />
        </mxCell>
        <mxCell id="YZRFhoB7YX8apTzMsQSC-10" value="Minimize cost" style="rounded=1;whiteSpace=wrap;html=1;fillColor=#dae8fc;strokeColor=#6c8ebf;" parent="1" vertex="1">
          <mxGeometry x="590.6" y="470" width="140" height="60" as="geometry" />
        </mxCell>
        <mxCell id="YZRFhoB7YX8apTzMsQSC-11" value="Minimize waste" style="rounded=1;whiteSpace=wrap;html=1;fillColor=#dae8fc;strokeColor=#6c8ebf;" parent="1" vertex="1">
          <mxGeometry x="750.6" y="470" width="140" height="60" as="geometry" />
        </mxCell>
        <mxCell id="YZRFhoB7YX8apTzMsQSC-12" value="&lt;b&gt;Decision variables&lt;/b&gt;" style="text;html=1;strokeColor=none;fillColor=none;align=center;verticalAlign=middle;whiteSpace=wrap;rounded=0;" parent="1" vertex="1">
          <mxGeometry x="310.6" y="330" width="110" height="30" as="geometry" />
        </mxCell>
        <mxCell id="YZRFhoB7YX8apTzMsQSC-13" value="Which and how many food packages to buy?" style="rounded=1;whiteSpace=wrap;html=1;fillColor=#dae8fc;strokeColor=#6c8ebf;" parent="1" vertex="1">
          <mxGeometry x="430.6" y="310" width="140" height="60" as="geometry" />
        </mxCell>
        <mxCell id="YZRFhoB7YX8apTzMsQSC-14" value="Which recipe on&lt;br&gt;which day?" style="rounded=1;whiteSpace=wrap;html=1;fillColor=#dae8fc;strokeColor=#6c8ebf;" parent="1" vertex="1">
          <mxGeometry x="590.6" y="310" width="140" height="60" as="geometry" />
        </mxCell>
        <mxCell id="YZRFhoB7YX8apTzMsQSC-16" value="Menu planning model" style="text;html=1;strokeColor=none;fillColor=none;align=center;verticalAlign=middle;whiteSpace=wrap;rounded=0;fontStyle=1;horizontal=1;fontSize=18;" parent="1" vertex="1">
          <mxGeometry x="300.6" y="270" width="200" height="30" as="geometry" />
        </mxCell>
        <mxCell id="YZRFhoB7YX8apTzMsQSC-17" value="" style="endArrow=none;dashed=1;html=1;dashPattern=1 3;strokeWidth=2;rounded=0;fontSize=18;exitX=-0.001;exitY=0.33;exitDx=0;exitDy=0;exitPerimeter=0;" parent="1" source="YZRFhoB7YX8apTzMsQSC-15" edge="1">
          <mxGeometry width="50" height="50" relative="1" as="geometry">
            <mxPoint x="300.6" y="380" as="sourcePoint" />
            <mxPoint x="900.6" y="380" as="targetPoint" />
            <Array as="points">
              <mxPoint x="570.6" y="380" />
            </Array>
          </mxGeometry>
        </mxCell>
        <mxCell id="YZRFhoB7YX8apTzMsQSC-18" value="" style="endArrow=none;dashed=1;html=1;dashPattern=1 3;strokeWidth=2;rounded=0;fontSize=18;exitX=0;exitY=0.673;exitDx=0;exitDy=0;exitPerimeter=0;" parent="1" source="YZRFhoB7YX8apTzMsQSC-15" edge="1">
          <mxGeometry width="50" height="50" relative="1" as="geometry">
            <mxPoint x="290.6" y="459.6600000000001" as="sourcePoint" />
            <mxPoint x="900.5999999999998" y="459.65999999999985" as="targetPoint" />
            <Array as="points">
              <mxPoint x="570.6" y="460" />
            </Array>
          </mxGeometry>
        </mxCell>
        <mxCell id="YZRFhoB7YX8apTzMsQSC-30" style="edgeStyle=orthogonalEdgeStyle;rounded=0;orthogonalLoop=1;jettySize=auto;html=1;fontSize=18;" parent="1" source="YZRFhoB7YX8apTzMsQSC-22" edge="1">
          <mxGeometry relative="1" as="geometry">
            <mxPoint x="301" y="410" as="targetPoint" />
            <Array as="points">
              <mxPoint x="260" y="330" />
              <mxPoint x="260" y="410" />
            </Array>
          </mxGeometry>
        </mxCell>
        <mxCell id="YZRFhoB7YX8apTzMsQSC-22" value="" style="rounded=0;whiteSpace=wrap;html=1;" parent="1" vertex="1">
          <mxGeometry x="60.3" y="135" width="159.4" height="390" as="geometry" />
        </mxCell>
        <mxCell id="YZRFhoB7YX8apTzMsQSC-23" value="Data" style="text;html=1;strokeColor=none;fillColor=none;align=center;verticalAlign=middle;whiteSpace=wrap;rounded=0;fontStyle=1;horizontal=1;fontSize=18;" parent="1" vertex="1">
          <mxGeometry x="50" y="105" width="70.6" height="30" as="geometry" />
        </mxCell>
        <mxCell id="YZRFhoB7YX8apTzMsQSC-24" value="LCA data" style="rounded=1;whiteSpace=wrap;html=1;fillColor=#dae8fc;strokeColor=#6c8ebf;" parent="1" vertex="1">
          <mxGeometry x="70" y="145" width="140" height="60" as="geometry" />
        </mxCell>
        <mxCell id="YZRFhoB7YX8apTzMsQSC-25" value="Recipe data" style="rounded=1;whiteSpace=wrap;html=1;fillColor=#dae8fc;strokeColor=#6c8ebf;" parent="1" vertex="1">
          <mxGeometry x="70" y="220" width="140" height="60" as="geometry" />
        </mxCell>
        <mxCell id="YZRFhoB7YX8apTzMsQSC-26" value="Food Composition Database (FCD)" style="rounded=1;whiteSpace=wrap;html=1;fillColor=#dae8fc;strokeColor=#6c8ebf;" parent="1" vertex="1">
          <mxGeometry x="70" y="295" width="140" height="60" as="geometry" />
        </mxCell>
        <mxCell id="YZRFhoB7YX8apTzMsQSC-27" value="Package data" style="rounded=1;whiteSpace=wrap;html=1;fillColor=#dae8fc;strokeColor=#6c8ebf;" parent="1" vertex="1">
          <mxGeometry x="70" y="375" width="140" height="60" as="geometry" />
        </mxCell>
        <mxCell id="YZRFhoB7YX8apTzMsQSC-31" value="" style="rounded=0;whiteSpace=wrap;html=1;" parent="1" vertex="1">
          <mxGeometry x="969.7" y="380" width="159.4" height="80" as="geometry" />
        </mxCell>
        <mxCell id="YZRFhoB7YX8apTzMsQSC-32" value="Optimal menu plan" style="rounded=1;whiteSpace=wrap;html=1;fillColor=#dae8fc;strokeColor=#6c8ebf;" parent="1" vertex="1">
          <mxGeometry x="979.4000000000001" y="390" width="140" height="60" as="geometry" />
        </mxCell>
        <mxCell id="YZRFhoB7YX8apTzMsQSC-34" value="Output" style="text;html=1;strokeColor=none;fillColor=none;align=center;verticalAlign=middle;whiteSpace=wrap;rounded=0;fontStyle=1;horizontal=1;fontSize=18;" parent="1" vertex="1">
          <mxGeometry x="969.7" y="345" width="70" height="30" as="geometry" />
        </mxCell>
        <mxCell id="7-xt87H8JdmWSKV0_pWn-1" value="Dietary Reference Values (DRVs)" style="rounded=1;whiteSpace=wrap;html=1;fillColor=#dae8fc;strokeColor=#6c8ebf;" vertex="1" parent="1">
          <mxGeometry x="70" y="455" width="140" height="60" as="geometry" />
        </mxCell>
        <mxCell id="7-xt87H8JdmWSKV0_pWn-7" style="edgeStyle=orthogonalEdgeStyle;rounded=0;orthogonalLoop=1;jettySize=auto;html=1;entryX=0.001;entryY=0.579;entryDx=0;entryDy=0;entryPerimeter=0;" edge="1" parent="1" source="7-xt87H8JdmWSKV0_pWn-3" target="YZRFhoB7YX8apTzMsQSC-15">
          <mxGeometry relative="1" as="geometry" />
        </mxCell>
        <mxCell id="7-xt87H8JdmWSKV0_pWn-3" value="" style="rounded=0;whiteSpace=wrap;html=1;" vertex="1" parent="1">
          <mxGeometry x="60.299999999999955" y="580" width="159.4" height="155" as="geometry" />
        </mxCell>
        <mxCell id="7-xt87H8JdmWSKV0_pWn-4" value="Household size" style="rounded=1;whiteSpace=wrap;html=1;fillColor=#dae8fc;strokeColor=#6c8ebf;" vertex="1" parent="1">
          <mxGeometry x="70" y="590" width="140" height="60" as="geometry" />
        </mxCell>
        <mxCell id="7-xt87H8JdmWSKV0_pWn-5" value="Model settings" style="text;html=1;strokeColor=none;fillColor=none;align=center;verticalAlign=middle;whiteSpace=wrap;rounded=0;fontStyle=1;horizontal=1;fontSize=18;" vertex="1" parent="1">
          <mxGeometry x="60.299999999999955" y="545" width="130" height="30" as="geometry" />
        </mxCell>
        <mxCell id="7-xt87H8JdmWSKV0_pWn-6" value="Number of days for menu plan" style="rounded=1;whiteSpace=wrap;html=1;fillColor=#dae8fc;strokeColor=#6c8ebf;" vertex="1" parent="1">
          <mxGeometry x="70" y="665" width="140" height="60" as="geometry" />
        </mxCell>
      </root>
    </mxGraphModel>
  </diagram>
</mxfile>
